PathFileType	3	(X/Y/Z)	results
DataRate	CameraRate	NumFrames	NumMarkers	Units	OrigDataRate	OrigDataStartFrame	OrigNumFrames
30.0	30.0	4	85	mm	30.0	308	410
Frame#	Time	head			nose			neck			shoulder_r			elbow_r			wrist_r			shoulder_l			elbow_l			wrist_l			hip_r			knee_r			ankle_r			hip_l			knee_l			ankle_l			heel_r			heel_l			mtoe_r			ltoe_r			mtoe_l			ltoe_l			asis_l			asis_r			psi_r			psi_l			mhnd_r			lhnd_r			mhnd_l			lhnd_l			l_lat_knee			r_med_wrist			l_lat_ankle			r_med_ankle			r_lat_knee			xiphoid			l_med_ankle			r_med_knee			l_med_elbow			navel			r_lat_elbow			r_lat_wrist			l_med_wrist			l_lat_elbow			l_med_knee			r_med_elbow			r_lat_ankle			l_lat_wrist			chin			T10			r_eye			l_eye			l_ear			r_ear			spinal_cord_8			spinal_cord_12			spinal_cord_27			spinal_cord_33			up_arm_r_0			up_arm_r_5			up_arm_l_0			up_arm_l_5			front_torso_11			front_torso_7			front_torso_4			front_torso_1			front_torso_10			thigh_r_2			thigh_r_3			thigh_l_1			thigh_l_5			shank_l_0			shank_l_4			shank_r_1			shank_r_2			foot_r_1			foot_r_3			foot_r_5			foot_r_6			foot_r_7			foot_l_1			foot_l_7			foot_l_0			foot_l_4			foot_l_5			foot_l_6			
		X1	Y1	Z1	X2	Y2	Z2	X3	Y3	Z3	X4	Y4	Z4	X5	Y5	Z5	X6	Y6	Z6	X7	Y7	Z7	X8	Y8	Z8	X9	Y9	Z9	X10	Y10	Z10	X11	Y11	Z11	X12	Y12	Z12	X13	Y13	Z13	X14	Y14	Z14	X15	Y15	Z15	X16	Y16	Z16	X17	Y17	Z17	X18	Y18	Z18	X19	Y19	Z19	X20	Y20	Z20	X21	Y21	Z21	X22	Y22	Z22	X23	Y23	Z23	X24	Y24	Z24	X25	Y25	Z25	X26	Y26	Z26	X27	Y27	Z27	X28	Y28	Z28	X29	Y29	Z29	X30	Y30	Z30	X31	Y31	Z31	X32	Y32	Z32	X33	Y33	Z33	X34	Y34	Z34	X35	Y35	Z35	X36	Y36	Z36	X37	Y37	Z37	X38	Y38	Z38	X39	Y39	Z39	X40	Y40	Z40	X41	Y41	Z41	X42	Y42	Z42	X43	Y43	Z43	X44	Y44	Z44	X45	Y45	Z45	X46	Y46	Z46	X47	Y47	Z47	X48	Y48	Z48	X49	Y49	Z49	X50	Y50	Z50	X51	Y51	Z51	X52	Y52	Z52	X53	Y53	Z53	X54	Y54	Z54	X55	Y55	Z55	X56	Y56	Z56	X57	Y57	Z57	X58	Y58	Z58	X59	Y59	Z59	X60	Y60	Z60	X61	Y61	Z61	X62	Y62	Z62	X63	Y63	Z63	X64	Y64	Z64	X65	Y65	Z65	X66	Y66	Z66	X67	Y67	Z67	X68	Y68	Z68	X69	Y69	Z69	X70	Y70	Z70	X71	Y71	Z71	X72	Y72	Z72	X73	Y73	Z73	X74	Y74	Z74	X75	Y75	Z75	X76	Y76	Z76	X77	Y77	Z77	X78	Y78	Z78	X79	Y79	Z79	X80	Y80	Z80	X81	Y81	Z81	X82	Y82	Z82	X83	Y83	Z83	X84	Y84	Z84	X85	Y85	Z85	
308	10.266666666666666	-2153.5766953157813	1652.340306474437	-1194.7340725577178	-2089.857159536082	1445.4953316498074	-1266.406612481221	-2182.2198777075423	1329.3639286285782	-1097.7160469025312	-2000.9712806745163	1274.4479925893484	-1072.9204228911105	-1973.2253852834651	1016.2159365726526	-1130.3380655073863	-2114.321670472172	1039.7183073510419	-1308.9062992342513	-2317.670160219121	1306.3184160984188	-1095.5932350818628	-2422.1136025976057	1065.1736586680222	-1160.9496147849818	-2247.985763888812	1063.89525892712	-1310.8893580868316	-2110.856398702719	839.4206026145489	-949.9240819085829	-2081.8830538637903	461.7721068152833	-1061.5610351155897	-2004.820511428543	107.09646396784933	-914.0057445668576	-2308.535704222346	848.7037943446356	-962.0269101128978	-2358.0384240698736	461.7749016568414	-1039.669893078501	-2413.8716805166805	87.25007996569889	-947.1268647894929	-1998.4522858619985	55.88056748300604	-881.715924882071	-2425.6237749744305	26.907028320369	-913.5174955434658	-2035.1389316523544	3.0799929085909525	-1097.523809547679	-1963.1387582508596	-2.84037984796931	-1045.1914705168724	-2438.7091151663767	15.678267594918145	-1139.4616858507788	-2513.325594484401	20.580996263394983	-1076.0953838087867	-2346.8308362461707	871.4377302569409	-1040.7364381979141	-2057.681810620445	857.7514271611634	-1018.2676814745809	-2156.258287807469	969.792311226434	-921.6205342480162	-2254.771140628053	970.214503141754	-932.3375603523202	-2156.6884947265753	1015.9955950406925	-1363.8969611478867	-2162.2957089261154	1067.9524200398287	-1375.6481202258685	-2201.362470133228	1035.0451014756252	-1363.885147496507	-2178.5385901958703	1083.3225567102263	-1361.8590319066068	-2408.0865439595696	464.5902406236117	-1042.4405562859897	-2104.2975905742182	1012.7350357033857	-1309.0436666317	-2468.0969421992704	81.90622762699095	-937.9816156658259	-2035.4962305882145	85.76468901076927	-923.9169524456037	-2038.4592944725139	458.45707584163176	-1063.8060387454739	-2171.157368312795	1150.4001867177992	-1155.390667348263	-2386.483934893337	68.3490413990016	-958.7049059751076	-2123.554624153488	455.00471397804193	-1059.6904677084033	-2409.0205217646853	1060.2459512462515	-1126.4411166804387	-2177.2512732774658	939.262617089579	-1129.1446337180432	-1945.9094986472358	1031.7290434094984	-1156.166190028556	-2119.2484786034734	1066.2615194954224	-1292.2083124254625	-2269.110889250836	1041.7887248388145	-1320.221588394696	-2439.2285009147945	1092.2978326272466	-1186.828830311224	-2311.479961445882	460.1156342955048	-1056.6345685361346	-1999.1029420733541	1013.7416450611761	-1103.3265756240908	-1954.5207798707295	99.90329525917346	-908.7318009405193	-2246.700453525779	1091.9393487171478	-1298.2883639238896	-2101.287002650092	1369.9973694065454	-1231.873266069898	-2199.0918649339383	1197.6750040352558	-973.6257591527348	-2059.474436321665	1482.1024570657523	-1255.0407477234105	-2122.7937601137323	1474.513432017478	-1292.6065035323388	-2227.4361885927256	1483.67073405605	-1228.7642495541606	-2071.848534700752	1499.739219481566	-1132.5895971863267	-2187.953711243484	1394.811758003181	-1062.760029892131	-2199.104682536526	1292.9056526254853	-992.62141246888	-2188.0362697388346	1050.5020674629197	-958.5545320584407	-2197.566559995406	1186.0747868781275	-984.0966282489403	-2008.7012688764028	1153.7755316464704	-1142.5432574541114	-1951.8608500176383	1118.322472956616	-1082.6687891864904	-2356.9697940395367	1271.008105536186	-1128.7944374926049	-2392.9568184288805	1121.0864156582875	-1101.1693341236564	-2132.0210633023353	973.2104261490624	-1089.465649484346	-2167.7661604536224	1061.9561022431621	-1167.878252297266	-2236.4674900583673	1192.2614378001936	-1179.5402828603574	-2253.0494454064974	1004.1899041066254	-1118.4560743700872	-2083.9333529339956	1230.2335356430654	-1171.5860906211578	-2113.0516574657604	633.7089564216827	-1008.4858928839067	-2014.2048586585634	607.723499494372	-1022.9269045842843	-2295.9965100550235	567.31592104239	-1015.0023853232677	-2421.6808718197076	760.2109856705611	-1004.4779158241668	-2467.9224123427166	186.11415361655787	-976.5794242120013	-2331.982834625693	308.39113724022127	-1010.1934279346698	-1991.5532783162987	323.54357786445166	-995.024687688592	-2080.5065491130354	265.7026291201017	-990.6167402136934	-2011.2447127326943	-5.052770737396864	-1080.7252314715777	-1985.010732174978	-5.007103156771768	-1067.3815605726768	-2033.0975488544616	32.73054903316993	-1018.8364734001678	-1994.0802345092227	34.1089128980914	-1011.176340531869	-1964.6199514472642	17.161689278657022	-999.5926888310922	-2486.6863426179043	14.151003262673207	-1108.6580466510418	-2488.0941636955054	51.248624665101495	-1004.0609491992036	-2500.434639786575	17.390252824799976	-1099.4835251083591	-2469.738851547378	10.16508043025454	-1119.2843059044485	-2467.569836750226	29.125862837501703	-1061.406577104229	-2432.4304288567546	35.863759555495	-1035.224077046609	
309	10.3	-2160.3482670099465	1656.1702099470406	-1187.3073573841282	-2090.363195035369	1450.1418301252065	-1255.3982689507336	-2185.9599096438137	1331.629921239803	-1092.40875446851	-2005.0032974695782	1276.1971414430154	-1064.0720018802463	-1983.9592406274146	1020.1189955486956	-1132.858236086102	-2126.525769082298	1050.8911962713557	-1309.1392442792633	-2323.111094182084	1304.9446331693118	-1096.9240284163184	-2431.798060483378	1065.1072582804622	-1160.1368437513245	-2251.287048975426	1065.7071549047957	-1302.3320616355197	-2115.6798144052696	841.2556652436086	-946.6080140247044	-2090.5451808708854	458.9079761172628	-1040.108249775736	-2021.9225767525256	98.11062751483801	-903.6449862568643	-2313.1747709173437	849.6103075154011	-961.9607347857489	-2362.1420599628905	461.4508119162593	-1032.7667526992502	-2422.8007378422562	87.42258166770911	-941.258204201298	-2017.4799618994443	45.251048765069605	-873.4263714336801	-2435.9748142232534	27.296413346292695	-907.8678204819518	-2037.3390183695656	4.436559478025854	-1093.9862251671605	-1969.103895312883	-2.9409675093130354	-1037.001230924398	-2439.858215830355	14.490987207198565	-1134.0735422980674	-2517.003023012385	19.209763976490017	-1073.7962178771882	-2350.2886258515364	871.602521084697	-1041.4430793938388	-2061.485690098736	859.3094435733067	-1014.2205981092218	-2162.070027102717	971.6378746963472	-920.0066536282137	-2260.3980701680453	971.5630510058036	-932.3113443493199	-2169.703990241892	1029.4127534811769	-1364.4203937541529	-2174.824657623712	1081.777737687439	-1374.4567999530425	-2202.1145318658514	1037.376728539846	-1353.2640486754824	-2179.8748350495184	1085.8720008096725	-1350.2059811974102	-2412.1325068858805	464.2710815221587	-1037.0672840230945	-2116.8166533284934	1023.8148685735084	-1310.236306762285	-2477.3124394731444	82.37941241143476	-933.80084722615	-2051.878985637864	77.24298332713764	-916.3505520903166	-2047.1479529089017	454.59440582691667	-1042.2119049043038	-2173.142003627865	1153.3320704955574	-1151.7580559111127	-2395.1641879541326	68.35484966701661	-951.9367627910872	-2132.3404084750377	452.53570597903234	-1039.369523779223	-2419.582593853137	1060.5301306499725	-1125.2602070840237	-2179.0624537705585	941.9065165039545	-1127.8991653878631	-1956.6780576185884	1036.1208802367235	-1158.4235035950828	-2130.980194584994	1076.9422046118793	-1291.5568277600917	-2271.76712604113	1043.4068834210905	-1312.5948404314172	-2447.6947342315298	1092.1281538025871	-1186.886447908375	-2315.2182519702405	459.1927157009324	-1048.7360999550904	-2009.4897434436793	1017.0582682616202	-1105.577913066828	-1972.0278802893533	90.67467674448199	-895.5923436333454	-2250.827767900825	1093.7472883037499	-1289.6652534883044	-2101.7501420646627	1374.6226188091857	-1220.897228525573	-2204.8933664999413	1198.5621978946135	-970.0995498167509	-2061.0756197792634	1487.3382588211557	-1243.1085166863243	-2122.8000436172847	1478.4414899290298	-1282.9715206035953	-2229.9054502461604	1486.0502676547933	-1223.136198393347	-2078.336362751289	1505.3515019625722	-1121.3052006779142	-2192.6149438939733	1396.6798724457483	-1056.8780253832551	-2204.8394920334963	1293.9911459536484	-988.0724296639489	-2193.6550536211435	1051.2707239785304	-956.3822845704731	-2203.118674611981	1187.0800641514531	-980.6608833634631	-2016.4813280857934	1158.8237528882398	-1138.6419496644687	-1959.5925732666933	1119.5899980503884	-1081.2216867489078	-2362.5034040274018	1269.9381061003114	-1130.3364225172654	-2402.634743384554	1121.4471514933628	-1100.7621540105495	-2134.7546825593568	975.5659146763855	-1086.953912316023	-2169.2058217278577	1065.0383709535602	-1165.1193896917298	-2238.090539277965	1195.2475895087935	-1176.7731964612976	-2255.276061678578	1006.4793503101417	-1118.050515616842	-2085.8748353572973	1233.6055179251925	-1165.3337391060954	-2119.9993982036654	633.183529004467	-995.9933717921034	-2021.3316022492775	605.1803416544599	-1007.6107710202331	-2300.3771716579326	567.1650700847013	-1008.9040720297302	-2425.554901851998	760.6447534699636	-1005.4432644736346	-2475.386283137854	186.50066870126247	-972.5844395647298	-2337.8241264263975	307.99884733112987	-1002.1813378949469	-2004.1771538267672	317.8764669027449	-974.19651024112	-2093.0997994472064	259.93353026407283	-977.8116074146668	-2014.4901760944936	-4.134071205184303	-1075.993380365353	-1989.2801447998686	-4.286784321334669	-1060.8042929893159	-2041.676711356561	29.442462022466803	-1013.7932775364346	-2003.352014838033	31.240418755113215	-1003.2617377834106	-1974.3489122707579	14.304336581284172	-990.5618631660693	-2489.024438877238	12.780909029099105	-1105.215801184932	-2494.9323710785548	50.54702440788256	-1001.0160644503566	-2503.155868381844	15.969840672943977	-1096.624312755783	-2471.6322430600317	8.861465116062998	-1115.123974790633	-2471.94369278085	28.21580975020502	-1057.3367813252007	-2437.9409338285923	35.40499722525684	-1029.8080960017678	
310	10.333333333333334	-2166.752533690962	1657.6993711647544	-1178.9024146792412	-2091.422594311363	1452.9296921905427	-1245.059459921092	-2188.4983223959957	1331.5755209235758	-1086.4343064729	-2012.4682648366563	1281.868093338456	-1061.1634722030085	-1989.6741577414207	1024.1200432732053	-1122.7815419436567	-2120.2539256615405	1057.0511692120258	-1307.7453286072068	-2327.453375600142	1300.83439537161	-1097.1854080277928	-2442.887397145988	1064.628120191715	-1162.0873748340734	-2265.149324450089	1076.6082904074012	-1307.241493537844	-2118.7581200958016	841.1547011143201	-941.9349636826802	-2094.6482368751244	456.81288336578007	-1025.461822638696	-2030.4775058676073	90.93561940312739	-900.8746810794249	-2316.0542318432567	848.3199116720156	-960.1741516295699	-2367.2922411387394	459.85213477376976	-1027.4160868381816	-2434.138564871274	87.08660309728094	-935.0698141980421	-2027.136874671545	36.8119685710774	-872.6525260394383	-2449.2251614636652	27.122215240227256	-901.8983187219796	-2034.9932649860407	5.5741851597338155	-1095.5187005867485	-1969.3963606549664	-2.3887254557835162	-1035.5905128236734	-2440.477103577351	13.43768853328839	-1127.916666519278	-2520.8778900930697	17.559108328381573	-1072.008962262912	-2352.1406496036016	869.519623747988	-1040.3419846505187	-2063.696554032882	859.0012834610814	-1008.8985880555797	-2166.2204927237826	971.4761331414973	-916.9779548525996	-2264.3600566292866	970.774729113561	-930.6874075845942	-2160.4558796688957	1036.2224259727216	-1365.4658113107018	-2163.633616143384	1088.6197866802386	-1376.1176109958017	-2216.3346920539366	1052.043037398904	-1360.4232273325144	-2195.114932657212	1100.8177853923698	-1355.2760831703156	-2417.147945136342	463.0876111751675	-1032.9483374508702	-2111.1764895083543	1029.7365212883533	-1308.074202601732	-2488.944261492883	82.45028434150781	-929.8342139352068	-2060.0486578416553	70.62560199235962	-915.2735204111308	-2051.24729515832	451.9479795497034	-1027.3987918812907	-2174.190915438602	1153.8315963801576	-1147.0903636348612	-2406.2088902370183	67.7487827570401	-944.4170536962969	-2136.483484967048	450.4595060127004	-1025.7714460876418	-2429.223043189627	1058.8719620753045	-1127.9303904493624	-2179.869397292588	942.1927879617773	-1125.1396715585113	-1960.526959259148	1039.2764909662685	-1146.7529640270081	-2125.133275582031	1083.3368010307968	-1290.6311293267213	-2285.323230556608	1054.3947217141456	-1318.2701458486674	-2459.488374156539	1092.6437765177732	-1187.3441544495945	-2320.048156727239	456.9177967446664	-1042.3232161873257	-2017.0453427369916	1021.9220300391645	-1097.2594413370396	-1980.8565515802713	83.10262013860658	-891.5997594964924	-2265.0688584404347	1103.9706664318737	-1293.1630720250598	-2101.9155928752702	1377.2943540824472	-1210.529353618443	-2209.016179044579	1197.4079328292435	-965.5909690858583	-2063.1152677012983	1490.7425658655984	-1232.3607896182282	-2123.9153089800247	1480.49283605664	-1273.304825759191	-2232.2197971832884	1486.1135220177002	-1215.4405610012475	-2082.9410736929954	1508.7487218832175	-1110.9475542222817	-2195.9214151805054	1396.2984439874378	-1050.4612712148294	-2208.954419013387	1292.9876706420364	-982.7438506353312	-2197.564316786531	1050.036348905686	-952.9532306309271	-2207.0364788235825	1186.022108833991	-976.2199150289912	-2020.1468350562823	1162.9740732162593	-1133.78706464213	-1967.7714156591244	1124.4769524008477	-1071.7589124148403	-2368.8723259407707	1267.4143838229509	-1129.7610503500432	-2410.176672986407	1118.7952255191055	-1102.5393300410826	-2136.331135703975	975.6241275325096	-1083.1943173878835	-2169.7765556195077	1065.667548897565	-1161.1406414269254	-2238.849713305334	1195.7766745889944	-1172.7969881987844	-2256.424009810334	1006.4625769100873	-1115.9774486170807	-2086.953955429355	1234.4654872167712	-1158.5608758861367	-2123.652160549224	632.0044564479816	-986.4749431300968	-2025.001355516404	603.1534160797016	-995.9677067491072	-2305.034515445826	565.214364338127	-1003.4474982183252	-2428.3011972722925	759.940299955729	-1005.169229231579	-2484.731091272871	186.1864507027069	-969.4595859796929	-2345.2679770326304	306.5491274710036	-994.4395092749353	-2010.4306308438647	313.2022834947179	-962.3978033064768	-2099.244737501853	255.60889565234513	-970.9269224525045	-2012.781611940067	-3.1335307558010594	-1076.808117480371	-1988.344095393487	-3.2377338539167475	-1060.404633056668	-2043.9981452903307	26.741912806888454	-1014.6122173534679	-2006.3044141643895	29.185837349432436	-1002.1166898393976	-1977.4272495691675	12.549146176895768	-988.7515289726952	-2491.1414526825524	11.311763979489843	-1101.808904210693	-2503.1877028142962	49.398943855668264	-998.256874505347	-2505.758218553066	14.382040586980246	-1094.0240589751697	-2473.188752670174	7.540822076406601	-1110.7253485446927	-2476.8925219470157	27.1048597478763	-1053.1269292183756	-2444.53861558736	34.757305757527526	-1023.7949439140464	
311	10.366666666666667	-2171.8755470497435	1658.2743283459329	-1170.6951391351759	-2093.8272426845324	1454.2597051931443	-1236.0286799454605	-2189.857892868187	1330.6257810745733	-1079.2993576898652	-2020.890969068928	1287.7801548099615	-1061.6823973329715	-1986.116468009747	1027.0639516362664	-1101.2830365708562	-2097.795640634923	1054.187836964458	-1299.119318554342	-2331.7648099012076	1295.5453721490462	-1095.8910324223025	-2451.6919882164034	1062.0878933695988	-1162.5675692492098	-2286.7811949717175	1092.807767869415	-1319.617831021808	-2120.050155495871	840.4370580867417	-936.6903147310949	-2096.4385621028096	455.4207792441041	-1016.1555812777932	-2032.3880475620797	86.58781922185038	-900.5450712320537	-2317.204491459632	845.7256401909192	-956.9871775423252	-2372.487548287245	457.51157630633696	-1022.3478529478332	-2445.5295004781606	85.83954300417274	-930.2871145502301	-2029.1737131721063	31.801338304858387	-873.6230425891894	-2462.525358864204	25.582839334093265	-897.8277753076268	-2033.6425623276214	5.681383015113644	-1097.2401954676457	-1968.6189107349808	-2.280889794473804	-1036.6904106858494	-2440.8815754283883	14.535718986227613	-1123.1222406182487	-2524.3509232950355	16.986839078460424	-1071.8016409948928	-2352.652829944815	866.2030578868969	-1037.626060553546	-2064.464826653955	858.4518302823005	-1003.1744688446427	-2168.938508770131	970.4445808704759	-912.8748221977845	-2266.921392027437	968.7871134975669	-927.5861258747757	-2132.3466702319893	1031.5632057983448	-1359.7496755782195	-2134.059538322704	1083.5759462094518	-1372.4297060425763	-2241.5708252067498	1074.538173593173	-1378.242579988832	-2221.756818395996	1123.6096238397233	-1370.8165966525196	-2422.22665538364	461.32456497182653	-1028.5839986348558	-2088.9444496700653	1026.8373130371333	-1297.6349817266298	-2500.5264178560287	81.63088291806581	-927.0937459356263	-2062.049150826019	66.67188141730884	-915.3048403674378	-2053.043392036443	450.35111870661126	-1018.4625782058912	-2174.48172146123	1153.4313417720853	-1141.2869847578268	-2417.4118129889216	66.24168867634656	-938.4546516898652	-2138.277986073596	448.9582132867947	-1016.6749387777063	-2434.5746552237288	1054.5284226256601	-1130.3744205859823	-2180.046796017255	941.6033039204171	-1121.2127327755788	-1954.7686472897656	1041.3028766055154	-1122.9272809458348	-2104.111924134623	1081.06977334667	-1283.463509029924	-2306.97441412715	1070.6959468938587	-1330.814328990515	-2470.9657863723446	1091.3141399800982	-1184.309730304127	-2325.0993554680285	453.8686001901271	-1036.6475010252336	-2016.1356592122156	1025.905716060055	-1078.8576647899322	-1982.7441948324208	78.45894304216444	-891.6552787460267	-2286.5406456990595	1118.9670401404896	-1303.4146628417827	-2103.464850139283	1378.6051093077408	-1201.2920382709299	-2211.6206988337144	1195.39564126699	-959.8664229881301	-2066.0265559780346	1492.4615522215415	-1223.3750209844509	-2126.588417341577	1481.328756159618	-1264.4412830031767	-2235.10318633615	1485.77393655751	-1206.869478333653	-2086.387898033497	1510.589597117423	-1102.0686002763282	-2197.8411694014558	1395.0261812961978	-1042.870329577873	-2211.5207151005493	1291.1184289377752	-976.2019475864032	-2200.058428266886	1047.941210944973	-948.3448689124224	-2209.489488364957	1184.1044546190587	-970.566784612737	-2017.9505455957983	1163.8740297467855	-1125.7726518325908	-1972.1216904154949	1131.3596374036538	-1055.6639158558519	-2376.0762799574372	1263.5604298950198	-1126.0084058536238	-2413.4233404594916	1113.1085044792517	-1103.5553310768114	-2137.0895868497505	974.7492695671332	-1078.4497749027014	-2169.7347144172445	1065.3982385210388	-1156.032655419903	-2238.894619752938	1195.4841158672853	-1167.4312575254314	-2256.824892977917	1005.6616757821268	-1112.4486230114762	-2087.256267588668	1234.3091082951073	-1150.9922036314897	-2125.212603950857	630.8663347651616	-979.1761629342865	-2026.6047725122398	601.8318209635894	-988.5553426618274	-2309.2185815199164	562.2227566017361	-998.2801290564023	-2429.9700886271153	758.472077960599	-1002.8743216803093	-2494.0538592910943	185.07621779248456	-967.1721915470512	-2352.85938757636	304.27034586030743	-987.6175272400753	-2012.2131450301363	310.2211193771617	-956.8528158384335	-2101.1556219504387	252.98590857312752	-966.3951521102678	-2011.4745085055063	-2.9856306606724488	-1078.4591403491333	-1987.241266546484	-2.9509915266478	-1061.755064236562	-2044.0882097481644	24.73058520678036	-1015.9811286625036	-2006.6111692152547	27.69021985158109	-1002.9565236057958	-1977.5416405482868	11.368398079399594	-989.6201713931315	-2492.9016984163627	11.459727020861212	-1099.9391399634885	-2511.276004393841	48.229314210463315	-996.8413678876283	-2507.9739957189327	14.252546978611441	-1092.9601522856447	-2474.425820783948	8.022367524797472	-1107.8668713879915	-2481.632380397656	26.892747460035213	-1050.3688571145328	-2451.0882871912436	34.6377259369197	-1019.1795283762613	
